<?xml version="1.0" standalone="no"?>
<!DOCTYPE svg PUBLIC "-//W3C//DTD SVG 20010904//EN"
 "http://www.w3.org/TR/2001/REC-SVG-20010904/DTD/svg10.dtd">
<svg version="1.0" xmlns="http://www.w3.org/2000/svg"
 width="704.000000pt" height="704.000000pt" viewBox="0 0 704.000000 704.000000"
 preserveAspectRatio="xMidYMid meet">
<metadata>
Created by potrace 1.14, written by Peter Selinger 2001-2017
</metadata>
<g transform="translate(0.000000,704.000000) scale(0.100000,-0.100000)"
fill="#000000" stroke="none">
<path d="M2420 6885 l0 -155 -155 0 -155 0 0 -1450 0 -1450 -155 0 -155 0 0
150 0 150 -495 0 -495 0 0 -460 0 -460 155 0 155 0 0 -150 0 -150 150 0 150 0
0 -345 0 -345 190 0 190 0 0 -305 0 -305 155 0 155 0 2 -307 3 -308 153 -3
152 -3 0 -494 0 -495 1605 0 1605 0 0 495 0 495 150 0 150 0 0 460 0 460 155
0 155 0 0 1110 0 1110 -155 0 -155 0 0 190 0 190 -150 0 -150 0 0 155 0 155
-345 0 -345 0 0 155 0 155 -460 0 -460 0 0 150 0 150 -342 2 -343 3 -3 648 -2
647 -150 0 -150 0 0 155 0 155 -305 0 -305 0 0 -155z m610 -1605 l0 -1450 150
0 150 0 2 648 3 647 343 3 342 2 0 -650 0 -650 155 0 155 0 0 495 0 495 305 0
305 0 0 -650 0 -651 153 3 152 3 3 493 2 492 190 0 190 0 0 -190 0 -190 150 0
150 0 0 -1110 0 -1110 -150 0 -150 0 0 -460 0 -460 -190 0 -190 0 0 -340 0
-340 -1265 0 -1265 0 0 340 0 340 -150 0 -150 0 -2 308 -3 307 -152 3 -153 3
0 304 0 305 -155 0 -155 0 0 345 0 345 -190 0 -190 0 0 150 0 150 -150 0 -150
0 0 310 0 310 340 0 339 0 3 -152 3 -153 153 -3 152 -3 0 -460 0 -460 153 3
152 3 3 2063 2 2062 305 0 305 0 0 -1450z"/>
</g>
</svg>
