<?xml version="1.0" encoding="UTF-8" standalone="no"?>
<svg
   xmlns:dc="http://purl.org/dc/elements/1.1/"
   xmlns:cc="http://creativecommons.org/ns#"
   xmlns:rdf="http://www.w3.org/1999/02/22-rdf-syntax-ns#"
   xmlns:svg="http://www.w3.org/2000/svg"
   xmlns="http://www.w3.org/2000/svg"
   xmlns:sodipodi="http://sodipodi.sourceforge.net/DTD/sodipodi-0.dtd"
   xmlns:inkscape="http://www.inkscape.org/namespaces/inkscape"
   version="1.1"
   width="699.99988"
   height="699.99988"
   id="svg4"
   viewBox="0 0 699.99988 699.99988"
   sodipodi:docname="Codecademy_Logo.cdr">
  <metadata
     id="metadata10">
    <rdf:RDF>
      <cc:Work
         rdf:about="">
        <dc:format>image/svg+xml</dc:format>
        <dc:type
           rdf:resource="http://purl.org/dc/dcmitype/StillImage" />
      </cc:Work>
    </rdf:RDF>
  </metadata>
  <defs
     id="defs8" />
  <sodipodi:namedview
     pagecolor="#ffffff"
     bordercolor="#666666"
     borderopacity="1"
     objecttolerance="10"
     gridtolerance="10"
     guidetolerance="10"
     inkscape:pageopacity="0"
     inkscape:pageshadow="2"
     inkscape:window-width="640"
     inkscape:window-height="480"
     id="namedview6" />
  <path
     d="m 143.43,162.4598 c 2.76,-0.8498 5.7299,-0.3498 8.5799,-0.47 81.0201,0.0102 162.0501,0.0201 243.07,-0.01 1.4,0.0399 2.91,-0.0202 4.14,0.7999 1.29,2.5299 0.6301,5.5001 0.8002,8.2301 -0.04,118.33 -0.0201,236.6498 -0.0102,354.9799 -0.1899,3.06 0.5802,6.37 -0.79,9.2401 -1.2498,0.71 -2.7298,0.7401 -4.1298,0.7801 -81.36,-0.0103 -162.72,-0.0301 -244.08,0.01 -2.7301,-0.1599 -5.7002,0.4799 -8.2301,-0.8 -0.76,-1.25 -0.76,-2.7399 -0.79,-4.13 0.03,-121.7299 -0.01,-243.4499 0.0201,-365.1702 0.0998,-1.1899 0.0399,-3.0197 1.4199,-3.4599 z m 35.99,35.9002 c -1.4,0.5598 -1.3399,2.3298 -1.4099,3.57 -0.0301,97.7198 0.01,195.44 -0.0201,293.1599 0.0501,1.3901 0.0201,2.88 0.79,4.1198 1.2101,0.8402 2.73,0.7501 4.13,0.8102 59.37,-0.07 118.7499,0.0499 178.1201,-0.0601 2.85,0.4901 2.99,-2.9101 2.9798,-4.8699 -0.04,-97.71 0.03,-195.4199 -0.0298,-293.12 0.3198,-2.2399 -1.76,-4.1902 -3.9501,-3.9401 -58.35,-0.1698 -116.7,0.0501 -175.0501,-0.19 -1.8499,0.0701 -3.7998,-0.17 -5.5599,0.5202 z m 89.9099,98.9198 c 16.1901,-1.52 33.1801,1.4502 46.8802,10.5301 5.5199,3.64 10.58,8.07 14.7098,13.25 1.2002,1.2901 1.2501,3.4999 -0.2698,4.5899 -6.0701,5.61 -12.4002,10.94 -18.5301,16.4899 -1.3099,0.9902 -3.0101,2.88 -4.7599,1.7102 -2.6,-2.13 -4.6701,-4.82 -7.28,-6.9302 -8.74,-7.5197 -21.4001,-9.3197 -32.32,-6.3297 -8.61,2.3099 -15.4602,9.2798 -18.3901,17.5997 -3.7701,10.4803 -3.64,21.8101 -3.6499,32.8003 0.1698,10.2498 0.4099,20.9299 4.7398,30.4299 3.39,7.3199 10.0902,13 17.9501,14.9598 10.2799,2.5303 21.93,1.0503 30.4501,-5.5499 3.13,-2.23 5.4598,-5.3498 8.4399,-7.7598 1.47,-1.0903 3.1101,0.54 4.2599,1.4 6.0001,5.3098 12.0002,10.6299 18.03,15.9199 1.19,1.0701 2.8202,2.4299 2.0602,4.25 -1.3101,2.84 -3.8602,4.83 -6.0001,7.02 -12.13,11.66 -28.9099,17.82 -45.61,18.1599 -16.4999,0.54 -33.7099,-3.57 -46.7101,-14.1299 -10.6798,-8.49 -17.61,-20.98 -20.8199,-34.1101 -3.2,-13.2398 -3.4699,-26.9799 -3.14,-40.5301 0.44,-17.5099 3.5201,-35.9597 14.4601,-50.1899 10.6399,-14.2399 28.05,-22.1599 45.4998,-23.58 z m 174.1002,203.1701 c 1.41,-0.6302 3.0099,-0.4 4.51,-0.4799 35.38,0.0799 70.7598,-0.0102 106.1399,0.04 1.9,-0.2002 4.0501,0.7599 3.85,2.9797 0.1301,10.0001 0.1301,20.0101 0,30.0101 0.2001,2.2301 -1.95,3.17 -3.85,2.99 -36.0499,0.0202 -72.11,0.0202 -108.1599,0 -1.91,0.18 -4.0601,-0.7599 -3.85,-2.98 -0.2001,-9.36 0,-18.73 -0.0902,-28.0999 0.1401,-1.47 -0.2299,-3.78 1.4502,-4.46 z"
     style="fill:#204056;fill-rule:evenodd"
     id="path2" />
</svg>
